<svg xmlns="http://www.w3.org/2000/svg" xmlns:xlink="http://www.w3.org/1999/xlink" version="1.1" x="0px" y="0px" width="100px" height="100px" viewBox="0 0 100 100" enable-background="new 0 0 100 100" xml:space="preserve">
<g id="Captions">
	<path d="M12.742,94.184C7.12,91.294,3.26,85.436,3.26,78.69c0-9.6,7.81-17.408,17.409-17.408c0.011,0,0.022,0,0.031,0   c0.289-1.136,0.563-2.224,0.821-3.238c-0.283-0.012-0.566-0.021-0.852-0.021C9.271,58.022,0,67.295,0,78.69   c0,8.848,6.063,16.604,13.896,19.546C13.896,98.236,12.5,96.295,12.742,94.184z"/>
	<path d="M79.504,58.104c-1.892-0.008-3.719,0.226-5.459,0.699l-1.746-5.081l-0.894-4.257c-0.001-0.002,0-0.146-0.001-0.149   l-0.493-2.551h-0.003c-0.262-1.25-1.432-4.598-5.233-4.658c-0.178-0.004-0.346-0.006-0.508-0.007   c0.577-1.707,0.135-3.666-1.287-4.951c0,0-19.338-18.565-23.043-19.551c-4.35-1.157-8.766,1.71-9.786,6.095l-6.216,26.751   c-0.172,0.746-10.544,41.626-10.544,41.626c-0.817,3.111,1.042,6.295,4.152,7.111c0.496,0.129,0.993,0.192,1.482,0.192   c2.583,0,4.942-1.73,5.628-4.344l9.104-34.672l8.476,10.417v22.774c0,3.217,2.607,5.822,5.823,5.822   c3.215,0,5.821-2.605,5.821-5.822V72.81l15.506-15.912l1.002,2.897C63.99,62.941,58.854,70.181,58.813,78.62   c-0.051,11.354,9.144,20.635,20.499,20.689C90.668,99.361,99.947,90.167,100,78.813C100.053,67.455,90.856,58.155,79.504,58.104z    M57.633,44.061c0.891,0.807,2.008,1.203,3.121,1.203c0.642,0,1.281-0.132,1.876-0.394c0.574-0.007,1.507-0.003,2.978,0.032   c1.916,0.047,2.371,1.923,2.371,1.923l0,0l0.194,0.762L42.257,47.5l3.331-14.329L57.633,44.061z M54.772,68.539   c-0.039-1.279-0.49-2.512-1.298-3.503L42.159,51.127l26.633,0.094l0.51,2.508L54.772,68.539z M79.327,95.905   c-9.479-0.043-17.154-7.789-17.11-17.268c0.032-6.961,4.217-12.938,10.183-15.615l5.63,16.295c0.207,0.6,0.768,0.981,1.374,0.983   c0.157,0,0.322-0.025,0.479-0.082c0.762-0.265,1.166-1.093,0.903-1.854l-5.63-16.305c1.383-0.354,2.835-0.539,4.33-0.533   c9.481,0.045,17.152,7.791,17.11,17.27C96.552,88.272,88.808,95.946,79.327,95.905z"/>
	<circle cx="41.66" cy="8.388" r="7.763"/>
	<path d="M34.484,68.115c2.253,2.936,3.594,6.601,3.594,10.575c0,7.177-4.362,13.348-10.575,16.008l0.134,0.51   c0.117,2.563-0.893,3.186-0.893,3.186c8.359-2.649,14.595-10.476,14.595-19.703c0-5.589-2.234-10.665-5.853-14.389L34.484,68.115z"/>
</g>
<g id="Your_Icon">
</g>
</svg>